<mxfile host="65bd71144e">
    <diagram id="tMwVYfzn25PWMmUZTQfm" name="Page-1">
        <mxGraphModel dx="913" dy="672" grid="1" gridSize="10" guides="1" tooltips="1" connect="1" arrows="1" fold="1" page="1" pageScale="1" pageWidth="850" pageHeight="1100" math="0" shadow="0">
            <root>
                <mxCell id="0"/>
                <mxCell id="1" parent="0"/>
                <mxCell id="17" style="edgeStyle=none;html=1;entryX=0.42;entryY=1.025;entryDx=0;entryDy=0;entryPerimeter=0;" parent="1" source="2" target="10" edge="1">
                    <mxGeometry relative="1" as="geometry"/>
                </mxCell>
                <mxCell id="18" value="Επιλέγει ΔΙιαδρομή" style="edgeLabel;html=1;align=center;verticalAlign=middle;resizable=0;points=[];" parent="17" vertex="1" connectable="0">
                    <mxGeometry x="-0.3549" y="-3" relative="1" as="geometry">
                        <mxPoint as="offset"/>
                    </mxGeometry>
                </mxCell>
                <mxCell id="26" style="edgeStyle=none;html=1;entryX=-0.02;entryY=0.463;entryDx=0;entryDy=0;entryPerimeter=0;" parent="1" source="2" target="24" edge="1">
                    <mxGeometry relative="1" as="geometry"/>
                </mxCell>
                <mxCell id="27" value="Συμπληρώνει και υποβάλλει" style="edgeLabel;html=1;align=center;verticalAlign=middle;resizable=0;points=[];" parent="26" vertex="1" connectable="0">
                    <mxGeometry x="-0.0885" y="-2" relative="1" as="geometry">
                        <mxPoint as="offset"/>
                    </mxGeometry>
                </mxCell>
                <mxCell id="2" value="Actor" style="shape=umlActor;verticalLabelPosition=bottom;verticalAlign=top;html=1;" parent="1" vertex="1">
                    <mxGeometry x="80" y="620" width="30" height="60" as="geometry"/>
                </mxCell>
                <mxCell id="5" value="" style="edgeStyle=none;html=1;" parent="1" target="4" edge="1">
                    <mxGeometry relative="1" as="geometry">
                        <mxPoint x="300" y="410" as="sourcePoint"/>
                    </mxGeometry>
                </mxCell>
                <mxCell id="7" value="" style="edgeStyle=none;html=1;" parent="1" source="4" target="6" edge="1">
                    <mxGeometry relative="1" as="geometry"/>
                </mxCell>
                <mxCell id="39" style="edgeStyle=none;html=1;" parent="1" source="4" edge="1">
                    <mxGeometry relative="1" as="geometry">
                        <mxPoint x="425" y="540" as="targetPoint"/>
                    </mxGeometry>
                </mxCell>
                <mxCell id="40" value="Ναι" style="edgeLabel;html=1;align=center;verticalAlign=middle;resizable=0;points=[];" parent="39" vertex="1" connectable="0">
                    <mxGeometry x="-0.3333" y="2" relative="1" as="geometry">
                        <mxPoint as="offset"/>
                    </mxGeometry>
                </mxCell>
                <mxCell id="4" value="Έλεγος αν έχει ήδη αξιολογηθεί" style="ellipse;shape=umlControl;whiteSpace=wrap;html=1;" parent="1" vertex="1">
                    <mxGeometry x="390" y="370" width="70" height="80" as="geometry"/>
                </mxCell>
                <mxCell id="9" value="" style="edgeStyle=none;html=1;" parent="1" source="6" target="8" edge="1">
                    <mxGeometry relative="1" as="geometry"/>
                </mxCell>
                <mxCell id="6" value="Δεν έχει αξιολογηθεί" style="ellipse;shape=umlControl;whiteSpace=wrap;html=1;" parent="1" vertex="1">
                    <mxGeometry x="540" y="370" width="70" height="80" as="geometry"/>
                </mxCell>
                <mxCell id="14" value="" style="edgeStyle=none;html=1;entryX=0.5;entryY=0.075;entryDx=0;entryDy=0;entryPerimeter=0;" parent="1" source="8" target="15" edge="1">
                    <mxGeometry relative="1" as="geometry">
                        <mxPoint x="725" y="590" as="targetPoint"/>
                    </mxGeometry>
                </mxCell>
                <mxCell id="46" value="Εντός Πόλης" style="edgeLabel;html=1;align=center;verticalAlign=middle;resizable=0;points=[];" parent="14" vertex="1" connectable="0">
                    <mxGeometry x="-0.3011" y="2" relative="1" as="geometry">
                        <mxPoint as="offset"/>
                    </mxGeometry>
                </mxCell>
                <mxCell id="43" style="edgeStyle=none;html=1;" parent="1" source="8" target="42" edge="1">
                    <mxGeometry relative="1" as="geometry"/>
                </mxCell>
                <mxCell id="45" value="Εκτός πόλης" style="edgeLabel;html=1;align=center;verticalAlign=middle;resizable=0;points=[];" parent="43" vertex="1" connectable="0">
                    <mxGeometry x="0.1767" y="1" relative="1" as="geometry">
                        <mxPoint as="offset"/>
                    </mxGeometry>
                </mxCell>
                <mxCell id="48" style="edgeStyle=none;html=1;entryX=0;entryY=0.5;entryDx=0;entryDy=0;entryPerimeter=0;" parent="1" source="8" target="47" edge="1">
                    <mxGeometry relative="1" as="geometry"/>
                </mxCell>
                <mxCell id="49" value="Μετακίνηση Με Ταξί" style="edgeLabel;html=1;align=center;verticalAlign=middle;resizable=0;points=[];" parent="48" vertex="1" connectable="0">
                    <mxGeometry x="-0.3" relative="1" as="geometry">
                        <mxPoint x="11" as="offset"/>
                    </mxGeometry>
                </mxCell>
                <mxCell id="8" value="Έλεγχος τύπου διαδρομής" style="ellipse;shape=umlControl;whiteSpace=wrap;html=1;" parent="1" vertex="1">
                    <mxGeometry x="690" y="370" width="70" height="80" as="geometry"/>
                </mxCell>
                <mxCell id="23" value="" style="edgeStyle=none;html=1;" parent="1" source="10" target="22" edge="1">
                    <mxGeometry relative="1" as="geometry"/>
                </mxCell>
                <mxCell id="10" value="Ιστορικό Διαδρομών" style="shape=umlBoundary;whiteSpace=wrap;html=1;" parent="1" vertex="1">
                    <mxGeometry x="60" y="370" width="100" height="80" as="geometry"/>
                </mxCell>
                <mxCell id="28" value="" style="edgeStyle=none;html=1;" parent="1" source="15" target="24" edge="1">
                    <mxGeometry relative="1" as="geometry"/>
                </mxCell>
                <mxCell id="15" value="Εμφάνιση επιλογών αξιολόγης οχήματος" style="ellipse;shape=umlControl;whiteSpace=wrap;html=1;" parent="1" vertex="1">
                    <mxGeometry x="690" y="580" width="70" height="80" as="geometry"/>
                </mxCell>
                <mxCell id="22" value="Εμφάνισε την διαδρομή" style="ellipse;shape=umlControl;whiteSpace=wrap;html=1;" parent="1" vertex="1">
                    <mxGeometry x="240" y="370" width="70" height="80" as="geometry"/>
                </mxCell>
                <mxCell id="30" style="edgeStyle=none;html=1;entryX=0.486;entryY=0.138;entryDx=0;entryDy=0;entryPerimeter=0;" parent="1" source="24" target="29" edge="1">
                    <mxGeometry relative="1" as="geometry"/>
                </mxCell>
                <mxCell id="24" value="Φόρμα" style="shape=umlBoundary;whiteSpace=wrap;html=1;" parent="1" vertex="1">
                    <mxGeometry x="675" y="760" width="100" height="80" as="geometry"/>
                </mxCell>
                <mxCell id="32" value="" style="edgeStyle=none;html=1;" parent="1" source="29" target="31" edge="1">
                    <mxGeometry relative="1" as="geometry"/>
                </mxCell>
                <mxCell id="52" style="edgeStyle=none;html=1;entryX=0.014;entryY=0.525;entryDx=0;entryDy=0;entryPerimeter=0;" parent="1" source="29" target="51" edge="1">
                    <mxGeometry relative="1" as="geometry"/>
                </mxCell>
                <mxCell id="53" value="Εκτός Ορίου" style="edgeLabel;html=1;align=center;verticalAlign=middle;resizable=0;points=[];" parent="52" vertex="1" connectable="0">
                    <mxGeometry x="-0.4327" y="2" relative="1" as="geometry">
                        <mxPoint x="7" y="1" as="offset"/>
                    </mxGeometry>
                </mxCell>
                <mxCell id="29" value="Έλεγχος κλίμακας αξιολόγησης&amp;nbsp;" style="ellipse;shape=umlControl;whiteSpace=wrap;html=1;" parent="1" vertex="1">
                    <mxGeometry x="690" y="920" width="70" height="80" as="geometry"/>
                </mxCell>
                <mxCell id="34" value="" style="edgeStyle=none;html=1;" parent="1" source="31" target="33" edge="1">
                    <mxGeometry relative="1" as="geometry"/>
                </mxCell>
                <mxCell id="55" style="edgeStyle=none;html=1;entryX=0.514;entryY=0.138;entryDx=0;entryDy=0;entryPerimeter=0;" parent="1" source="31" target="54" edge="1">
                    <mxGeometry relative="1" as="geometry"/>
                </mxCell>
                <mxCell id="56" value="Εκτός Ορίου" style="edgeLabel;html=1;align=center;verticalAlign=middle;resizable=0;points=[];" parent="55" vertex="1" connectable="0">
                    <mxGeometry x="-0.3771" y="1" relative="1" as="geometry">
                        <mxPoint as="offset"/>
                    </mxGeometry>
                </mxCell>
                <mxCell id="31" value="Έλεγχος μεγέθους σχολίων" style="ellipse;shape=umlControl;whiteSpace=wrap;html=1;" parent="1" vertex="1">
                    <mxGeometry x="560" y="920" width="70" height="80" as="geometry"/>
                </mxCell>
                <mxCell id="36" value="" style="edgeStyle=none;html=1;" parent="1" source="33" target="35" edge="1">
                    <mxGeometry relative="1" as="geometry"/>
                </mxCell>
                <mxCell id="38" style="edgeStyle=none;html=1;entryX=1;entryY=0.5;entryDx=0;entryDy=0;" parent="1" source="33" target="37" edge="1">
                    <mxGeometry relative="1" as="geometry"/>
                </mxCell>
                <mxCell id="33" value="Ενημέρωση προφίλ και βάσης δεδομένων&amp;nbsp;" style="ellipse;shape=umlControl;whiteSpace=wrap;html=1;" parent="1" vertex="1">
                    <mxGeometry x="420" y="920" width="70" height="80" as="geometry"/>
                </mxCell>
                <mxCell id="35" value="Βάση Δεδομένων" style="ellipse;shape=umlEntity;whiteSpace=wrap;html=1;" parent="1" vertex="1">
                    <mxGeometry x="300" y="920" width="80" height="80" as="geometry"/>
                </mxCell>
                <mxCell id="37" value="Προφίλ" style="ellipse;shape=umlEntity;whiteSpace=wrap;html=1;" parent="1" vertex="1">
                    <mxGeometry x="300" y="1030" width="80" height="80" as="geometry"/>
                </mxCell>
                <mxCell id="41" value="Προβολή Κριτικής" style="ellipse;shape=umlControl;whiteSpace=wrap;html=1;strokeColor=#CC0000;" parent="1" vertex="1">
                    <mxGeometry x="390" y="530" width="70" height="80" as="geometry"/>
                </mxCell>
                <mxCell id="44" style="edgeStyle=none;html=1;entryX=-0.029;entryY=0.625;entryDx=0;entryDy=0;entryPerimeter=0;" parent="1" source="42" target="15" edge="1">
                    <mxGeometry relative="1" as="geometry"/>
                </mxCell>
                <mxCell id="42" value="Δυνάτότητα Αξιολόγησης&amp;nbsp; στο γκαραζ του οχήματος" style="ellipse;shape=umlControl;whiteSpace=wrap;html=1;strokeColor=#CC0000;" parent="1" vertex="1">
                    <mxGeometry x="540" y="530" width="70" height="80" as="geometry"/>
                </mxCell>
                <mxCell id="50" style="edgeStyle=none;html=1;entryX=1.029;entryY=0.488;entryDx=0;entryDy=0;entryPerimeter=0;" parent="1" source="47" target="15" edge="1">
                    <mxGeometry relative="1" as="geometry"/>
                </mxCell>
                <mxCell id="47" value="Δυνατότητα αξιολόγησης του οδηγού ταξί" style="ellipse;shape=umlControl;whiteSpace=wrap;html=1;strokeColor=#CC0000;" parent="1" vertex="1">
                    <mxGeometry x="900" y="370" width="70" height="80" as="geometry"/>
                </mxCell>
                <mxCell id="51" value="Εμφάνιση Κατάλληλου Μηνύματος" style="ellipse;shape=umlControl;whiteSpace=wrap;html=1;strokeColor=#CC0000;" parent="1" vertex="1">
                    <mxGeometry x="890" y="920" width="70" height="80" as="geometry"/>
                </mxCell>
                <mxCell id="54" value="Εμφάνιση Κατάλληλου Μηνύματος" style="ellipse;shape=umlControl;whiteSpace=wrap;html=1;strokeColor=#CC0000;" parent="1" vertex="1">
                    <mxGeometry x="560" y="1050" width="70" height="80" as="geometry"/>
                </mxCell>
            </root>
        </mxGraphModel>
    </diagram>
</mxfile>